<?xml version="1.0" standalone="no"?>
<!DOCTYPE svg PUBLIC "-//W3C//DTD SVG 20010904//EN"
 "http://www.w3.org/TR/2001/REC-SVG-20010904/DTD/svg10.dtd">
<svg version="1.0" xmlns="http://www.w3.org/2000/svg"
 width="50.000000pt" height="50.000000pt" viewBox="0 0 50.000000 50.000000"
 preserveAspectRatio="xMidYMid meet">

<g transform="translate(0.000000,50.000000) scale(0.100000,-0.100000)"
fill="#000000" stroke="none">
<path d="M167 486 c-55 -21 -103 -61 -134 -114 -24 -40 -28 -58 -28 -123 0
-67 4 -81 30 -125 99 -159 326 -164 425 -8 101 160 -4 368 -192 380 -39 3 -77
-1 -101 -10z m181 -35 c80 -41 122 -111 122 -201 0 -130 -90 -220 -220 -220
-130 0 -220 90 -220 220 0 90 43 160 125 203 43 23 146 22 193 -2z"/>
<path d="M129 364 c-38 -40 -15 -106 63 -180 79 -76 137 -92 178 -49 26 28 27
26 -18 49 -31 16 -35 16 -51 2 -16 -14 -20 -13 -53 9 -19 13 -45 39 -56 57
-19 30 -20 34 -5 50 15 17 15 21 -3 53 -10 19 -21 35 -25 35 -3 0 -16 -12 -30
-26z"/>
<path d="M240 381 c0 -5 13 -12 30 -16 40 -9 89 -56 96 -94 7 -36 24 -42 24
-8 0 32 -33 78 -77 104 -39 24 -73 30 -73 14z"/>
<path d="M240 331 c0 -5 11 -12 26 -15 14 -4 34 -22 46 -41 25 -43 41 -46 26
-4 -14 41 -98 92 -98 60z"/>
<path d="M262 263 c15 -15 30 -25 32 -22 10 9 -25 49 -42 49 -13 0 -11 -6 10
-27z"/>
</g>
</svg>
