<?xml version="1.0" standalone="no"?>
<!DOCTYPE svg PUBLIC "-//W3C//DTD SVG 20010904//EN"
 "http://www.w3.org/TR/2001/REC-SVG-20010904/DTD/svg10.dtd">
<svg version="1.0" xmlns="http://www.w3.org/2000/svg"
 width="48.000000pt" height="48.000000pt" viewBox="0 0 48.000000 48.000000"
 preserveAspectRatio="xMidYMid meet">

<g transform="translate(0.000000,48.000000) scale(0.100000,-0.100000)"
fill="#000000" stroke="none">
<path d="M191 354 c-26 -33 -27 -58 -1 -84 39 -39 120 -12 120 39 0 32 -39 71
-70 71 -19 0 -36 -9 -49 -26z m89 -13 c16 -31 12 -49 -15 -67 -23 -15 -27 -15
-50 0 -43 28 -26 86 25 86 19 0 33 -7 40 -19z"/>
<path d="M200 217 c-36 -13 -80 -66 -80 -98 0 -17 10 -19 120 -19 134 0 139 3
100 67 -30 50 -82 69 -140 50z m106 -41 c19 -19 34 -39 34 -45 0 -7 -34 -11
-100 -11 -66 0 -100 4 -100 11 0 6 15 26 34 45 46 46 86 46 132 0z"/>
</g>
</svg>
