<?xml version="1.0" standalone="no"?>
<!DOCTYPE svg PUBLIC "-//W3C//DTD SVG 20010904//EN"
 "http://www.w3.org/TR/2001/REC-SVG-20010904/DTD/svg10.dtd">
<svg version="1.0" xmlns="http://www.w3.org/2000/svg"
 width="50.000000pt" height="50.000000pt" viewBox="0 0 50.000000 50.000000"
 preserveAspectRatio="xMidYMid meet">

<g transform="translate(0.000000,50.000000) scale(0.100000,-0.100000)"
fill="#000000" stroke="none">
<path d="M112 430 c-47 -29 -62 -73 -62 -180 0 -107 15 -151 62 -180 29 -18
46 -20 149 -18 100 3 120 6 139 23 38 33 50 78 50 177 0 164 -36 198 -205 198
-83 0 -106 -4 -133 -20z m272 -39 c25 -24 26 -29 26 -143 0 -162 -11 -173
-179 -167 -78 4 -93 7 -115 28 -25 24 -26 29 -26 137 0 62 3 120 6 129 13 32
63 45 166 43 86 -3 99 -6 122 -27z"/>
<path d="M330 355 c0 -22 4 -26 23 -23 14 2 22 10 22 23 0 13 -8 21 -22 23
-19 3 -23 -1 -23 -23z"/>
<path d="M185 327 c-20 -16 -28 -35 -32 -69 -5 -42 -3 -50 25 -78 43 -43 101
-43 144 0 28 28 30 36 25 78 -4 34 -12 53 -32 69 -35 31 -95 31 -130 0z m114
-33 c12 -15 21 -34 21 -44 0 -31 -39 -70 -70 -70 -31 0 -70 39 -70 70 0 10 9
29 21 44 28 35 70 35 98 0z"/>
</g>
</svg>
