<?xml version="1.0" standalone="no"?>
<!DOCTYPE svg PUBLIC "-//W3C//DTD SVG 20010904//EN"
 "http://www.w3.org/TR/2001/REC-SVG-20010904/DTD/svg10.dtd">
<svg version="1.0" xmlns="http://www.w3.org/2000/svg"
 width="50.000000pt" height="50.000000pt" viewBox="0 0 50.000000 50.000000"
 preserveAspectRatio="xMidYMid meet">

<g transform="translate(0.000000,50.000000) scale(0.100000,-0.100000)"
fill="#000000" stroke="none">
<path d="M85 407 c-3 -7 -4 -82 -3 -167 l3 -155 165 0 165 0 0 165 0 165 -163
3 c-127 2 -164 0 -167 -11z m305 -157 l0 -140 -40 0 -40 0 0 50 c0 42 3 50 19
50 12 0 20 9 23 25 4 21 1 25 -18 25 -34 0 -35 47 -1 52 14 2 23 11 25 26 3
19 -1 22 -27 22 -40 0 -71 -31 -71 -70 0 -23 -4 -30 -20 -30 -15 0 -20 -7 -20
-25 0 -18 5 -25 20 -25 17 0 20 -7 20 -50 l0 -50 -75 0 -75 0 0 140 0 140 140
0 140 0 0 -140z"/>
</g>
</svg>
