<?xml version="1.0" standalone="no"?>
<!DOCTYPE svg PUBLIC "-//W3C//DTD SVG 20010904//EN"
 "http://www.w3.org/TR/2001/REC-SVG-20010904/DTD/svg10.dtd">
<svg version="1.0" xmlns="http://www.w3.org/2000/svg"
 width="500.000000pt" height="500.000000pt" viewBox="0 0 500.000000 500.000000"
 preserveAspectRatio="xMidYMid meet">

<g transform="translate(0.000000,500.000000) scale(0.100000,-0.100000)"
fill="#000000" stroke="none">
<path d="M1350 2961 c-42 -9 -80 -28 -80 -41 0 -5 42 -7 102 -3 85 5 100 4 96
-8 -50 -120 -114 -287 -144 -376 -32 -95 -36 -116 -26 -138 6 -14 20 -25 30
-25 16 0 20 10 25 50 7 58 73 290 118 414 l31 86 52 0 c29 0 68 5 87 12 l34
12 -30 8 c-44 11 -254 18 -295 9z"/>
<path d="M1806 2955 c-51 -18 -147 -114 -185 -184 -105 -200 -68 -401 75 -401
60 0 104 20 162 74 76 72 132 210 132 329 0 32 3 38 12 29 22 -22 33 -12 34
31 1 51 26 103 54 112 86 27 93 -90 21 -340 -56 -192 -54 -235 11 -235 42 0
77 21 134 82 100 107 184 278 192 393 4 61 2 72 -16 88 -16 15 -24 16 -41 7
-24 -13 -27 -26 -7 -33 22 -9 30 -73 17 -136 -32 -149 -186 -381 -254 -381
-23 0 -27 4 -27 28 0 16 18 88 40 161 49 165 62 237 54 292 -9 54 -50 99 -91
99 -39 0 -99 -43 -122 -88 -15 -27 -20 -32 -21 -17 0 32 -29 65 -56 65 -29 0
-102 -64 -120 -105 -8 -20 -9 -36 -3 -47 14 -27 26 -22 39 16 16 50 67 116 89
116 26 0 32 -22 32 -110 -1 -261 -187 -496 -301 -382 -105 105 22 455 193 533
35 15 38 19 17 18 -14 0 -43 -6 -64 -14z"/>
<path d="M2713 2913 c-30 -32 -82 -97 -116 -145 -61 -88 -62 -88 -105 -88 -45
0 -82 -14 -82 -30 0 -6 20 -10 45 -10 25 0 45 -2 45 -5 0 -3 -20 -43 -45 -89
-55 -101 -66 -136 -52 -161 8 -16 20 3 76 116 l66 134 40 -3 c75 -6 74 -4 68
-92 -5 -64 -3 -84 11 -105 19 -29 51 -32 84 -9 27 18 82 92 82 108 0 6 -7 -1
-17 -14 -47 -72 -93 -99 -107 -64 -19 49 13 233 70 394 28 82 33 105 22 111
-23 15 -31 10 -85 -48z m3 -99 c-18 -54 -37 -114 -41 -133 -7 -33 -8 -33 -49
-27 -22 4 -45 11 -50 16 -5 5 15 45 46 92 54 82 117 162 124 155 2 -2 -12 -48
-30 -103z"/>
<path d="M2972 2953 c-64 -31 -96 -94 -76 -147 11 -28 22 -17 28 29 9 58 48
105 87 105 22 0 29 -5 29 -20 0 -20 -50 -136 -178 -417 -60 -130 -67 -170 -17
-95 13 20 63 129 110 242 48 113 91 209 96 215 6 6 7 -64 3 -197 -6 -162 -4
-211 6 -223 20 -24 26 -19 50 48 30 84 121 275 154 323 14 21 26 36 26 34 0
-3 -14 -59 -30 -125 -35 -139 -51 -315 -30 -340 26 -31 35 -16 37 64 2 91 33
274 69 410 13 52 22 96 20 99 -3 2 -12 2 -20 -1 -29 -11 -165 -245 -211 -364
-16 -40 -30 -71 -32 -70 -2 2 1 69 7 149 17 261 -17 336 -128 281z"/>
<path d="M3655 2917 c-27 -30 -80 -96 -117 -148 l-67 -95 -39 4 c-40 4 -82
-11 -82 -28 0 -6 23 -10 50 -10 l50 0 -24 -38 c-32 -51 -77 -141 -86 -173 -4
-14 -3 -34 3 -44 8 -16 20 3 76 116 l66 134 35 -3 c81 -6 79 -3 74 -89 -6 -93
7 -126 50 -131 22 -3 37 6 72 42 24 26 44 52 44 58 0 6 -16 -7 -36 -30 -37
-43 -67 -54 -78 -26 -19 49 13 233 70 394 28 82 33 105 22 111 -23 15 -31 10
-83 -44z m13 -69 c-14 -35 -33 -94 -43 -131 l-19 -69 -39 6 c-56 9 -59 13 -41
49 43 83 150 224 162 212 2 -2 -7 -32 -20 -67z"/>
<path d="M1618 2290 c12 -5 22 -15 22 -21 0 -7 3 -9 6 -6 10 10 -16 37 -35 36
-11 0 -9 -3 7 -9z"/>
<path d="M1540 2270 c-8 -5 -12 -12 -9 -15 4 -3 12 1 19 10 14 17 11 19 -10 5z"/>
<path d="M1642 2220 c0 -14 2 -19 5 -12 2 6 2 18 0 25 -3 6 -5 1 -5 -13z"/>
<path d="M2756 2232 c-3 -5 1 -9 9 -9 8 0 12 4 9 9 -3 4 -7 8 -9 8 -2 0 -6 -4
-9 -8z"/>
<path d="M1886 2208 c-9 -12 -16 -27 -16 -33 1 -5 8 3 16 19 13 22 18 26 25
15 6 -9 9 -10 9 -2 0 23 -19 23 -34 1z"/>
<path d="M1890 2160 c-9 -23 -15 -28 -21 -18 -6 9 -9 4 -9 -15 0 -16 -4 -26
-10 -22 -5 3 -7 0 -4 -8 6 -15 -23 -44 -33 -33 -4 4 -2 16 5 27 12 18 11 19
-7 10 -11 -6 -23 -17 -27 -24 -4 -6 -4 -9 1 -5 4 4 14 0 21 -10 12 -16 14 -16
35 5 21 21 23 21 36 5 13 -15 13 -14 3 5 -8 18 -6 31 10 64 12 22 19 43 17 45
-2 3 -10 -9 -17 -26z"/>
<path d="M2705 2159 l-30 -7 28 -1 c41 -2 38 -45 -5 -71 -18 -11 -28 -20 -23
-20 6 0 21 7 33 16 22 15 24 15 38 -2 14 -18 15 -18 5 1 -5 11 -8 33 -8 48 2
21 7 27 26 27 13 0 22 2 20 4 -9 9 -55 12 -84 5z"/>
<path d="M3025 2130 c-3 -5 -3 -14 0 -20 3 -5 -9 -19 -27 -30 -18 -11 -28 -20
-22 -20 6 0 23 9 37 20 14 11 32 20 40 20 8 0 17 -9 20 -20 4 -15 13 -20 39
-18 l33 1 -33 4 c-28 4 -33 8 -29 24 4 15 0 19 -19 19 -17 0 -22 4 -18 15 7
17 -11 21 -21 5z"/>
<path d="M1599 2103 c-8 -14 -27 -32 -44 -39 -20 -9 -24 -13 -12 -14 19 0 77
54 77 71 0 15 -6 10 -21 -18z"/>
<path d="M2372 2090 c-18 -17 -29 -30 -24 -30 5 0 24 14 42 30 18 17 29 30 24
30 -5 0 -24 -14 -42 -30z"/>
<path d="M2422 2104 c-7 -8 -8 -14 -3 -14 10 0 25 19 20 25 -2 1 -10 -3 -17
-11z"/>
<path d="M2854 2098 c-42 -31 -52 -42 -27 -29 17 8 22 8 27 -5 6 -15 8 -15 30
-1 18 12 26 13 37 4 9 -9 9 -7 -1 8 -8 11 -16 22 -17 24 -1 2 -11 -7 -22 -20
-16 -19 -20 -21 -21 -7 0 9 10 24 22 32 12 9 18 16 12 16 -6 0 -24 -10 -40
-22z"/>
<path d="M3323 2100 c-38 -23 -40 -26 -15 -26 10 0 26 11 36 23 21 28 19 28
-21 3z"/>
<path d="M1984 2088 c-10 -12 -14 -18 -7 -15 6 4 13 1 16 -5 3 -10 9 -10 25
-1 16 10 23 9 32 -2 7 -8 22 -15 34 -14 18 1 18 2 -4 8 -16 4 -26 15 -28 30
l-4 23 -14 -21 c-19 -27 -37 -27 -29 -1 8 26 3 25 -21 -2z"/>
<path d="M2162 2097 c-6 -7 -7 -18 -3 -25 6 -10 11 -10 21 3 16 19 37 19 47 1
7 -12 12 -11 32 5 23 19 18 26 -8 10 -9 -6 -21 -5 -32 2 -13 8 -22 7 -35 -4
-16 -12 -17 -12 -11 4 8 20 4 22 -11 4z"/>
<path d="M3175 2089 c-34 -21 -29 -25 10 -7 14 6 25 15 25 20 0 10 1 10 -35
-13z"/>
<path d="M1653 2088 c-13 -6 -23 -15 -23 -20 0 -5 11 -1 25 8 24 15 27 15 44
0 9 -9 21 -16 26 -16 4 0 -4 9 -18 20 -14 11 -27 20 -29 19 -1 0 -13 -5 -25
-11z"/>
<path d="M2526 2085 c-11 -8 -15 -15 -9 -15 7 0 15 5 19 12 5 8 9 6 14 -6 6
-17 7 -17 20 0 9 11 10 15 3 10 -7 -4 -13 -2 -13 3 0 15 -11 13 -34 -4z"/>
<path d="M2591 2097 c2 -1 15 -11 29 -22 l25 -20 -19 23 c-11 12 -24 22 -29
22 -6 0 -8 -1 -6 -3z"/>
<path d="M3343 2074 c-12 -13 -18 -24 -13 -24 4 0 13 7 20 15 10 12 15 12 36
-2 14 -9 27 -13 31 -9 3 3 1 6 -5 6 -6 0 -19 9 -29 19 -18 19 -19 19 -40 -5z"/>
<path d="M3474 2084 c-18 -14 -18 -15 4 -4 12 6 22 13 22 15 0 8 -5 6 -26 -11z"/>
<path d="M2120 2070 c-9 -6 -10 -10 -3 -10 6 0 15 5 18 10 8 12 4 12 -15 0z"/>
<path d="M2294 2066 c11 -9 24 -16 30 -16 12 0 7 5 -24 19 -24 11 -24 11 -6
-3z"/>
<path d="M3200 2072 c0 -13 47 -28 57 -18 4 3 -3 6 -13 6 -11 0 -25 5 -32 12
-9 9 -12 9 -12 0z"/>
<path d="M1908 2053 c7 -3 16 -2 19 1 4 3 -2 6 -13 5 -11 0 -14 -3 -6 -6z"/>
<path d="M2433 2053 c9 -2 23 -2 30 0 6 3 -1 5 -18 5 -16 0 -22 -2 -12 -5z"/>
<path d="M2778 2053 c7 -3 16 -2 19 1 4 3 -2 6 -13 5 -11 0 -14 -3 -6 -6z"/>
</g>
</svg>
